<svg width="57" height="57" viewBox="0 0 57 57" fill="none" xmlns="http://www.w3.org/2000/svg">
<path d="M28.5 12.7419V7.125M28.5 12.7419C31.7896 12.8682 34.9011 14.2693 37.1762 16.6486C39.4514 19.0279 40.7118 22.1989 40.6909 25.4909V29.7659C40.6909 35.4326 45.125 36.8481 45.125 39.6815C45.125 41.0899 45.125 42.75 43.8472 42.75H13.1528C11.875 42.75 11.875 41.0899 11.875 39.6815C11.875 36.8481 16.3091 35.4326 16.3091 29.7659V25.4909C16.2882 22.1989 17.5486 19.0279 19.8238 16.6486C22.0989 14.2693 25.2104 12.8682 28.5 12.7419ZM20.7409 42.75C20.9641 44.7735 21.4676 46.4075 22.9829 47.766C24.4991 49.1253 26.4637 49.877 28.5 49.877C30.5363 49.877 32.5009 49.1253 34.0171 47.766C35.5324 46.4075 36.9526 44.7735 37.1759 42.75H20.7409Z" stroke="#54ADFF" stroke-width="2" stroke-linecap="round" stroke-linejoin="round"/>
</svg>
